<?xml version="1.0" encoding="iso-8859-1"?>
<!-- Generator: Adobe Illustrator 19.0.0, SVG Export Plug-In . SVG Version: 6.00 Build 0)  -->
<svg version="1.1" id="Capa_1" xmlns="http://www.w3.org/2000/svg" xmlns:xlink="http://www.w3.org/1999/xlink" x="0px" y="0px"
	 viewBox="0 0 480 480" style="enable-background:new 0 0 480 480;" xml:space="preserve">
<g>
	<g>
		<path d="M440,144H336V40c0-22.056-17.944-40-40-40H40C17.944,0,0,17.944,0,40v224c0,22.056,17.944,40,40,40h69.784l118.096,70.856
			c1.28,0.768,2.704,1.144,4.12,1.144c1.904,0,3.8-0.68,5.304-2.008c2.616-2.312,3.424-6.056,2.008-9.24l-27-60.752H256v136
			c0,22.056,17.944,40,40,40h144c22.056,0,40-17.944,40-40V184C480,161.944,462.056,144,440,144z M322.848,293.44
			c0.888-0.808,1.728-1.64,2.536-2.528c0.8-0.872,1.528-1.792,2.248-2.728c0.824-1.08,1.608-2.168,2.328-3.328
			c0.848-1.368,1.624-2.776,2.304-4.248c0.36-0.792,0.68-1.584,0.992-2.4c0.632-1.632,1.152-3.304,1.56-5.016
			c0.12-0.496,0.288-0.968,0.392-1.472c0.368-1.832,0.624-3.704,0.72-5.608C345.376,259.488,356.384,256,368,256
			c30.88,0,56,25.128,56,56s-25.12,56-56,56s-56-25.128-56-56c0-4.032,0.456-8.088,1.344-12.096c0.408-0.2,0.768-0.456,1.168-0.664
			c2.224-1.176,4.312-2.528,6.264-4.088C321.48,294.592,322.184,294.04,322.848,293.44z M264,288h-64
			c-2.704,0-5.232,1.368-6.704,3.64c-1.472,2.272-1.704,5.136-0.608,7.608l21.712,48.864l-98.288-58.976
			c-1.24-0.744-2.664-1.136-4.112-1.136H40c-13.232,0-24-10.768-24-24V40c0-13.232,10.768-24,24-24h256c13.232,0,24,10.768,24,24
			v112v110.088V264c0,1.472-0.176,2.896-0.432,4.288c-0.104,0.552-0.256,1.096-0.392,1.64c-0.2,0.784-0.44,1.544-0.712,2.296
			c-0.248,0.672-0.512,1.336-0.816,1.984c-0.232,0.488-0.504,0.944-0.768,1.416c-2.8,4.944-7.304,8.904-12.936,10.896
			c-0.032,0.016-0.056,0.048-0.088,0.056C301.376,287.44,298.76,288,296,288H264z M464,440c0,13.232-10.768,24-24,24H296
			c-13.232,0-24-10.768-24-24v-8h192V440z M464,416H272V304h24c0.2,0,0.384-0.056,0.584-0.056c-0.312,2.68-0.584,5.368-0.584,8.056
			c0,39.704,32.304,72,72,72s72-32.296,72-72c0-39.704-32.304-72-72-72c-11.128,0-22.096,2.68-32,7.608V208h128V416z M464,192H336
			v-32h104c13.232,0,24,10.768,24,24V192z"/>
	</g>
</g>
<g>
	<g>
		<path d="M184,48h-32c-44.112,0-80,35.888-80,80c0,4.424,3.584,8,8,8h176c4.416,0,8-3.576,8-8C264,83.888,228.112,48,184,48z
			 M88.496,120C92.448,88.48,119.424,64,152,64h32c32.576,0,59.552,24.48,63.504,56H88.496z"/>
	</g>
</g>
<g>
	<g>
		<path d="M256,216H80c-4.416,0-8,3.576-8,8c0,22.056,17.944,40,40,40h112c22.056,0,40-17.944,40-40
			C264,219.576,260.416,216,256,216z M223.992,248H112c-10.432,0-19.328-6.688-22.632-16h157.256
			C243.32,241.312,234.424,248,223.992,248z"/>
	</g>
</g>
<g>
	<g>
		<path d="M242.328,186.336C238.4,190.264,236.472,192,231.96,192c-4.512,0-6.44-1.736-10.368-5.664
			C217.224,181.976,211.24,176,199.92,176c-11.312,0-17.288,5.976-21.656,10.344c-3.92,3.92-5.84,5.656-10.336,5.656
			c-4.496,0-6.416-1.736-10.336-5.656C153.24,181.976,147.264,176,135.96,176s-17.288,5.976-21.648,10.344
			c-3.92,3.92-5.84,5.656-10.328,5.656c-4.496,0-6.416-1.736-10.336-5.656C89.288,181.976,83.312,176,72,176v16
			c4.496,0,6.416,1.736,10.336,5.656C86.696,202.024,92.672,208,103.984,208s17.28-5.976,21.648-10.344
			c3.92-3.92,5.84-5.656,10.328-5.656c4.488,0,6.408,1.736,10.328,5.656c4.36,4.368,10.336,10.344,21.648,10.344
			s17.288-5.976,21.656-10.344c3.92-3.92,5.84-5.656,10.336-5.656c4.504,0,6.44,1.736,10.368,5.664
			c4.36,4.36,10.344,10.336,21.664,10.336s17.304-5.976,21.672-10.336C257.56,193.736,259.496,192,264,192v-16
			C252.68,176,246.696,181.976,242.328,186.336z"/>
	</g>
</g>
<g>
	<g>
		<rect x="72" y="152" width="192" height="16"/>
	</g>
</g>
<g>
	<g>
		<rect x="128" y="88" width="16" height="16"/>
	</g>
</g>
<g>
	<g>
		<rect x="160" y="88" width="16" height="16"/>
	</g>
</g>
<g>
	<g>
		<rect x="192" y="88" width="16" height="16"/>
	</g>
</g>
<g>
	<g>
		<path d="M394.344,282.344L360,316.688l-10.344-10.344l-11.312,11.312l16,16c1.56,1.56,3.608,2.344,5.656,2.344
			c2.048,0,4.096-0.784,5.656-2.344l40-40L394.344,282.344z"/>
	</g>
</g>
<g>
</g>
<g>
</g>
<g>
</g>
<g>
</g>
<g>
</g>
<g>
</g>
<g>
</g>
<g>
</g>
<g>
</g>
<g>
</g>
<g>
</g>
<g>
</g>
<g>
</g>
<g>
</g>
<g>
</g>
</svg>
